<svg width="37" height="36" viewBox="0 0 37 36" fill="none" xmlns="http://www.w3.org/2000/svg">
<g id="microphone (1) 1" clip-path="url(#clip0_584_4434)">
<g id="01 align center">
<path id="Vector" d="M18.7068 29.9447C21.8571 29.9411 24.8774 28.6881 27.1051 26.4604C29.3327 24.2328 30.5858 21.2125 30.5893 18.0621V12.1208C30.5893 8.96938 29.3374 5.94701 27.109 3.7186C24.8806 1.49019 21.8582 0.238281 18.7068 0.238281C15.5553 0.238281 12.5329 1.49019 10.3045 3.7186C8.07613 5.94701 6.82422 8.96938 6.82422 12.1208V18.0621C6.82776 21.2125 8.0808 24.2328 10.3084 26.4604C12.5361 28.6881 15.5564 29.9411 18.7068 29.9447ZM9.79485 13.6062H15.7361V10.6355H9.92853C10.2776 8.55979 11.351 6.67493 12.9581 5.31558C14.5651 3.95623 16.6019 3.21034 18.7068 3.21034C20.8116 3.21034 22.8484 3.95623 24.4555 5.31558C26.0625 6.67493 27.1359 8.55979 27.485 10.6355H21.6774V13.6062H27.6187V16.5768H21.6774V19.5474H27.485C27.1359 21.6231 26.0625 23.508 24.4555 24.8674C22.8484 26.2267 20.8116 26.9726 18.7068 26.9726C16.6019 26.9726 14.5651 26.2267 12.9581 24.8674C11.351 23.508 10.2776 21.6231 9.92853 19.5474H15.7361V16.5768H9.79485V13.6062Z" fill="#A8A8A8"/>
<path id="Vector_2" d="M33.5637 19.5479C33.5598 23.092 32.1501 26.4899 29.644 28.996C27.1379 31.5022 23.74 32.9118 20.1959 32.9157H17.2252C13.6812 32.9114 10.2835 31.5016 7.77749 28.9956C5.27146 26.4896 3.86168 23.0919 3.85736 19.5479H0.886719C0.891829 23.8795 2.61484 28.0323 5.6778 31.0953C8.74076 34.1583 12.8936 35.8813 17.2252 35.8864H20.1959C24.5275 35.8813 28.6803 34.1583 31.7433 31.0953C34.8062 28.0323 36.5293 23.8795 36.5344 19.5479H33.5637Z" fill="#A8A8A8"/>
</g>
</g>
<defs>
<clipPath id="clip0_584_4434">
<rect width="35.6477" height="35.6477" fill="white" transform="translate(0.886719 0.238281)"/>
</clipPath>
</defs>
</svg>
