<svg width="37" height="36" viewBox="0 0 37 36" fill="none" xmlns="http://www.w3.org/2000/svg">
<g id="picture 1" clip-path="url(#clip0_584_4429)">
<path id="Vector" d="M28.6918 0.0214844H7.8973C5.92837 0.0238429 4.04075 0.807043 2.64851 2.19929C1.25626 3.59154 0.473062 5.47915 0.470703 7.44808L0.470703 28.2426C0.473062 30.2115 1.25626 32.0991 2.64851 33.4913C4.04075 34.8836 5.92837 35.6668 7.8973 35.6692H28.6918C30.6607 35.6668 32.5483 34.8836 33.9406 33.4913C35.3328 32.0991 36.116 30.2115 36.1184 28.2426V7.44808C36.116 5.47915 35.3328 3.59154 33.9406 2.19929C32.5483 0.807043 30.6607 0.0238429 28.6918 0.0214844V0.0214844ZM7.8973 2.99212H28.6918C29.8736 2.99212 31.007 3.46159 31.8426 4.29724C32.6783 5.1329 33.1477 6.26629 33.1477 7.44808V28.2426C33.1452 28.9042 32.9928 29.5568 32.7021 30.1512L19.0922 16.5412C18.4025 15.8514 17.5837 15.3042 16.6826 14.9308C15.7814 14.5575 14.8155 14.3653 13.8401 14.3653C12.8646 14.3653 11.8987 14.5575 10.9976 14.9308C10.0964 15.3042 9.27762 15.8514 8.58797 16.5412L3.44134 21.6864V7.44808C3.44134 6.26629 3.91081 5.1329 4.74646 4.29724C5.58212 3.46159 6.71551 2.99212 7.8973 2.99212ZM7.8973 32.6985C6.71551 32.6985 5.58212 32.229 4.74646 31.3934C3.91081 30.5577 3.44134 29.4243 3.44134 28.2426V25.8868L10.6867 18.6415C11.1005 18.2274 11.5919 17.8989 12.1327 17.6748C12.6735 17.4507 13.2532 17.3353 13.8386 17.3353C14.424 17.3353 15.0037 17.4507 15.5445 17.6748C16.0853 17.8989 16.5766 18.2274 16.9904 18.6415L30.6004 32.2529C30.006 32.5436 29.3535 32.696 28.6918 32.6985H7.8973Z" fill="#A8A8A8"/>
<path id="Vector_2" d="M24.2377 15.6179C25.2659 15.6179 26.271 15.313 27.1259 14.7418C27.9808 14.1706 28.6471 13.3587 29.0406 12.4087C29.434 11.4588 29.537 10.4136 29.3364 9.40512C29.1358 8.39669 28.6407 7.47039 27.9137 6.74335C27.1866 6.01631 26.2603 5.52119 25.2519 5.3206C24.2434 5.12001 23.1982 5.22296 22.2483 5.61643C21.2983 6.0099 20.4864 6.67622 19.9152 7.53113C19.344 8.38603 19.0391 9.39113 19.0391 10.4193C19.0391 11.7981 19.5868 13.1204 20.5617 14.0953C21.5366 15.0702 22.8589 15.6179 24.2377 15.6179ZM24.2377 8.19134C24.6783 8.19134 25.1091 8.32201 25.4755 8.56683C25.8419 8.81164 26.1274 9.1596 26.2961 9.56671C26.4647 9.97382 26.5088 10.4218 26.4229 10.854C26.3369 11.2862 26.1247 11.6832 25.8131 11.9947C25.5015 12.3063 25.1045 12.5185 24.6723 12.6045C24.2402 12.6905 23.7922 12.6463 23.3851 12.4777C22.978 12.3091 22.63 12.0235 22.3852 11.6571C22.1404 11.2907 22.0097 10.86 22.0097 10.4193C22.0097 9.82843 22.2444 9.26173 22.6623 8.8439C23.0801 8.42608 23.6468 8.19134 24.2377 8.19134Z" fill="#A8A8A8"/>
</g>
<defs>
<clipPath id="clip0_584_4429">
<rect width="35.6477" height="35.6477" fill="white" transform="translate(0.470703 0.0214844)"/>
</clipPath>
</defs>
</svg>
