<svg width="37" height="36" viewBox="0 0 37 36" fill="none" xmlns="http://www.w3.org/2000/svg">
<g id="video-camera (2) 1" clip-path="url(#clip0_584_4432)">
<path id="Vector" d="M34.6935 13.5404C33.6903 13.032 32.4853 13.1379 31.5862 13.8136L28.8636 15.8352C28.4776 12.0426 25.2863 9.15605 21.4742 9.15125H21.348L15.2255 3.03023C14.3923 2.19118 13.2576 1.72094 12.0751 1.72463H2.16498C1.34467 1.72463 0.679688 2.38968 0.679688 3.21C0.679688 4.03031 1.34467 4.69529 2.16498 4.69529H12.075C12.4688 4.69634 12.8461 4.85271 13.1252 5.13051L17.1459 9.15125H8.10631C4.00676 9.15619 0.684631 12.4783 0.679688 16.5779V28.4604C0.684631 32.5599 4.00676 35.8821 8.10631 35.887H21.4742C25.2864 35.8822 28.4776 32.9956 28.8636 29.203L31.5818 31.229C32.8942 32.2134 34.7563 31.9474 35.7406 30.6349C36.1263 30.1208 36.3347 29.4953 36.3347 28.8526V16.1961C36.3386 15.0704 35.7021 14.0404 34.6935 13.5404ZM25.9301 28.4604C25.9301 30.9213 23.9351 32.9163 21.4742 32.9163H8.10631C5.64537 32.9163 3.65035 30.9213 3.65035 28.4604V16.5779C3.65035 14.1169 5.64537 12.1219 8.10631 12.1219H21.4742C23.9351 12.1219 25.9301 14.1169 25.9301 16.5779V28.4604ZM33.3567 28.8421L28.9007 25.521V19.5173L33.3567 16.1962V28.8421Z" fill="#A8A8A8"/>
</g>
<defs>
<clipPath id="clip0_584_4432">
<rect width="35.6477" height="35.6477" fill="white" transform="translate(0.679688 0.239258)"/>
</clipPath>
</defs>
</svg>
